%TF.GenerationSoftware,KiCad,Pcbnew,7.0.6*%
%TF.CreationDate,2023-09-12T23:14:46-07:00*%
%TF.ProjectId,Rotary Encoder Board,526f7461-7279-4204-956e-636f64657220,rev?*%
%TF.SameCoordinates,Original*%
%TF.FileFunction,Legend,Top*%
%TF.FilePolarity,Positive*%
%FSLAX46Y46*%
G04 Gerber Fmt 4.6, Leading zero omitted, Abs format (unit mm)*
G04 Created by KiCad (PCBNEW 7.0.6) date 2023-09-12 23:14:46*
%MOMM*%
%LPD*%
G01*
G04 APERTURE LIST*
%ADD10C,0.150000*%
%ADD11C,0.120000*%
G04 APERTURE END LIST*
D10*
X149827493Y-89666713D02*
X150395874Y-89666713D01*
X150111683Y-89950903D02*
X150111683Y-89382522D01*
X149168254Y-91796767D02*
X149097207Y-91761243D01*
X149097207Y-91761243D02*
X148990635Y-91761243D01*
X148990635Y-91761243D02*
X148884064Y-91796767D01*
X148884064Y-91796767D02*
X148813016Y-91867815D01*
X148813016Y-91867815D02*
X148777493Y-91938862D01*
X148777493Y-91938862D02*
X148741969Y-92080958D01*
X148741969Y-92080958D02*
X148741969Y-92187529D01*
X148741969Y-92187529D02*
X148777493Y-92329624D01*
X148777493Y-92329624D02*
X148813016Y-92400672D01*
X148813016Y-92400672D02*
X148884064Y-92471720D01*
X148884064Y-92471720D02*
X148990635Y-92507243D01*
X148990635Y-92507243D02*
X149061683Y-92507243D01*
X149061683Y-92507243D02*
X149168254Y-92471720D01*
X149168254Y-92471720D02*
X149203778Y-92436196D01*
X149203778Y-92436196D02*
X149203778Y-92187529D01*
X149203778Y-92187529D02*
X149061683Y-92187529D01*
X149523493Y-92507243D02*
X149523493Y-91761243D01*
X149523493Y-91761243D02*
X149949778Y-92507243D01*
X149949778Y-92507243D02*
X149949778Y-91761243D01*
X150305017Y-92507243D02*
X150305017Y-91761243D01*
X150305017Y-91761243D02*
X150482636Y-91761243D01*
X150482636Y-91761243D02*
X150589207Y-91796767D01*
X150589207Y-91796767D02*
X150660255Y-91867815D01*
X150660255Y-91867815D02*
X150695778Y-91938862D01*
X150695778Y-91938862D02*
X150731302Y-92080958D01*
X150731302Y-92080958D02*
X150731302Y-92187529D01*
X150731302Y-92187529D02*
X150695778Y-92329624D01*
X150695778Y-92329624D02*
X150660255Y-92400672D01*
X150660255Y-92400672D02*
X150589207Y-92471720D01*
X150589207Y-92471720D02*
X150482636Y-92507243D01*
X150482636Y-92507243D02*
X150305017Y-92507243D01*
X134515380Y-92534220D02*
X134550903Y-92427649D01*
X134550903Y-92427649D02*
X134550903Y-92250030D01*
X134550903Y-92250030D02*
X134515380Y-92178982D01*
X134515380Y-92178982D02*
X134479856Y-92143458D01*
X134479856Y-92143458D02*
X134408808Y-92107935D01*
X134408808Y-92107935D02*
X134337760Y-92107935D01*
X134337760Y-92107935D02*
X134266713Y-92143458D01*
X134266713Y-92143458D02*
X134231189Y-92178982D01*
X134231189Y-92178982D02*
X134195665Y-92250030D01*
X134195665Y-92250030D02*
X134160141Y-92392125D01*
X134160141Y-92392125D02*
X134124618Y-92463173D01*
X134124618Y-92463173D02*
X134089094Y-92498696D01*
X134089094Y-92498696D02*
X134018046Y-92534220D01*
X134018046Y-92534220D02*
X133946999Y-92534220D01*
X133946999Y-92534220D02*
X133875951Y-92498696D01*
X133875951Y-92498696D02*
X133840427Y-92463173D01*
X133840427Y-92463173D02*
X133804903Y-92392125D01*
X133804903Y-92392125D02*
X133804903Y-92214506D01*
X133804903Y-92214506D02*
X133840427Y-92107935D01*
X134053570Y-91859268D02*
X134550903Y-91717173D01*
X134550903Y-91717173D02*
X134195665Y-91575078D01*
X134195665Y-91575078D02*
X134550903Y-91432982D01*
X134550903Y-91432982D02*
X134053570Y-91290887D01*
X134053570Y-91113268D02*
X134053570Y-90829077D01*
X133804903Y-91006696D02*
X134444332Y-91006696D01*
X134444332Y-91006696D02*
X134515380Y-90971173D01*
X134515380Y-90971173D02*
X134550903Y-90900125D01*
X134550903Y-90900125D02*
X134550903Y-90829077D01*
X134160141Y-90012029D02*
X134160141Y-89763363D01*
X134550903Y-89656791D02*
X134550903Y-90012029D01*
X134550903Y-90012029D02*
X133804903Y-90012029D01*
X133804903Y-90012029D02*
X133804903Y-89656791D01*
X134053570Y-89337077D02*
X134550903Y-89337077D01*
X134124618Y-89337077D02*
X134089094Y-89301554D01*
X134089094Y-89301554D02*
X134053570Y-89230506D01*
X134053570Y-89230506D02*
X134053570Y-89123935D01*
X134053570Y-89123935D02*
X134089094Y-89052887D01*
X134089094Y-89052887D02*
X134160141Y-89017363D01*
X134160141Y-89017363D02*
X134550903Y-89017363D01*
X134515380Y-88342411D02*
X134550903Y-88413459D01*
X134550903Y-88413459D02*
X134550903Y-88555554D01*
X134550903Y-88555554D02*
X134515380Y-88626602D01*
X134515380Y-88626602D02*
X134479856Y-88662125D01*
X134479856Y-88662125D02*
X134408808Y-88697649D01*
X134408808Y-88697649D02*
X134195665Y-88697649D01*
X134195665Y-88697649D02*
X134124618Y-88662125D01*
X134124618Y-88662125D02*
X134089094Y-88626602D01*
X134089094Y-88626602D02*
X134053570Y-88555554D01*
X134053570Y-88555554D02*
X134053570Y-88413459D01*
X134053570Y-88413459D02*
X134089094Y-88342411D01*
X134550903Y-87916125D02*
X134515380Y-87987173D01*
X134515380Y-87987173D02*
X134479856Y-88022696D01*
X134479856Y-88022696D02*
X134408808Y-88058220D01*
X134408808Y-88058220D02*
X134195665Y-88058220D01*
X134195665Y-88058220D02*
X134124618Y-88022696D01*
X134124618Y-88022696D02*
X134089094Y-87987173D01*
X134089094Y-87987173D02*
X134053570Y-87916125D01*
X134053570Y-87916125D02*
X134053570Y-87809554D01*
X134053570Y-87809554D02*
X134089094Y-87738506D01*
X134089094Y-87738506D02*
X134124618Y-87702982D01*
X134124618Y-87702982D02*
X134195665Y-87667458D01*
X134195665Y-87667458D02*
X134408808Y-87667458D01*
X134408808Y-87667458D02*
X134479856Y-87702982D01*
X134479856Y-87702982D02*
X134515380Y-87738506D01*
X134515380Y-87738506D02*
X134550903Y-87809554D01*
X134550903Y-87809554D02*
X134550903Y-87916125D01*
X134550903Y-87028030D02*
X133804903Y-87028030D01*
X134515380Y-87028030D02*
X134550903Y-87099078D01*
X134550903Y-87099078D02*
X134550903Y-87241173D01*
X134550903Y-87241173D02*
X134515380Y-87312221D01*
X134515380Y-87312221D02*
X134479856Y-87347744D01*
X134479856Y-87347744D02*
X134408808Y-87383268D01*
X134408808Y-87383268D02*
X134195665Y-87383268D01*
X134195665Y-87383268D02*
X134124618Y-87347744D01*
X134124618Y-87347744D02*
X134089094Y-87312221D01*
X134089094Y-87312221D02*
X134053570Y-87241173D01*
X134053570Y-87241173D02*
X134053570Y-87099078D01*
X134053570Y-87099078D02*
X134089094Y-87028030D01*
X134515380Y-86388602D02*
X134550903Y-86459650D01*
X134550903Y-86459650D02*
X134550903Y-86601745D01*
X134550903Y-86601745D02*
X134515380Y-86672792D01*
X134515380Y-86672792D02*
X134444332Y-86708316D01*
X134444332Y-86708316D02*
X134160141Y-86708316D01*
X134160141Y-86708316D02*
X134089094Y-86672792D01*
X134089094Y-86672792D02*
X134053570Y-86601745D01*
X134053570Y-86601745D02*
X134053570Y-86459650D01*
X134053570Y-86459650D02*
X134089094Y-86388602D01*
X134089094Y-86388602D02*
X134160141Y-86353078D01*
X134160141Y-86353078D02*
X134231189Y-86353078D01*
X134231189Y-86353078D02*
X134302237Y-86708316D01*
X134550903Y-86033363D02*
X134053570Y-86033363D01*
X134195665Y-86033363D02*
X134124618Y-85997840D01*
X134124618Y-85997840D02*
X134089094Y-85962316D01*
X134089094Y-85962316D02*
X134053570Y-85891268D01*
X134053570Y-85891268D02*
X134053570Y-85820221D01*
X149632112Y-84870903D02*
X149632112Y-84124903D01*
X149632112Y-84124903D02*
X149809731Y-84124903D01*
X149809731Y-84124903D02*
X149916302Y-84160427D01*
X149916302Y-84160427D02*
X149987350Y-84231475D01*
X149987350Y-84231475D02*
X150022873Y-84302522D01*
X150022873Y-84302522D02*
X150058397Y-84444618D01*
X150058397Y-84444618D02*
X150058397Y-84551189D01*
X150058397Y-84551189D02*
X150022873Y-84693284D01*
X150022873Y-84693284D02*
X149987350Y-84764332D01*
X149987350Y-84764332D02*
X149916302Y-84835380D01*
X149916302Y-84835380D02*
X149809731Y-84870903D01*
X149809731Y-84870903D02*
X149632112Y-84870903D01*
X150271540Y-84124903D02*
X150697826Y-84124903D01*
X150484683Y-84870903D02*
X150484683Y-84124903D01*
X148703779Y-87368380D02*
X148810350Y-87403903D01*
X148810350Y-87403903D02*
X148987969Y-87403903D01*
X148987969Y-87403903D02*
X149059017Y-87368380D01*
X149059017Y-87368380D02*
X149094541Y-87332856D01*
X149094541Y-87332856D02*
X149130064Y-87261808D01*
X149130064Y-87261808D02*
X149130064Y-87190760D01*
X149130064Y-87190760D02*
X149094541Y-87119713D01*
X149094541Y-87119713D02*
X149059017Y-87084189D01*
X149059017Y-87084189D02*
X148987969Y-87048665D01*
X148987969Y-87048665D02*
X148845874Y-87013141D01*
X148845874Y-87013141D02*
X148774826Y-86977618D01*
X148774826Y-86977618D02*
X148739303Y-86942094D01*
X148739303Y-86942094D02*
X148703779Y-86871046D01*
X148703779Y-86871046D02*
X148703779Y-86799999D01*
X148703779Y-86799999D02*
X148739303Y-86728951D01*
X148739303Y-86728951D02*
X148774826Y-86693427D01*
X148774826Y-86693427D02*
X148845874Y-86657903D01*
X148845874Y-86657903D02*
X149023493Y-86657903D01*
X149023493Y-86657903D02*
X149130064Y-86693427D01*
X149378731Y-86657903D02*
X149556350Y-87403903D01*
X149556350Y-87403903D02*
X149698445Y-86871046D01*
X149698445Y-86871046D02*
X149840540Y-87403903D01*
X149840540Y-87403903D02*
X150018160Y-86657903D01*
X150195778Y-86657903D02*
X150622064Y-86657903D01*
X150408921Y-87403903D02*
X150408921Y-86657903D01*
X149292588Y-82276196D02*
X149257064Y-82311720D01*
X149257064Y-82311720D02*
X149150493Y-82347243D01*
X149150493Y-82347243D02*
X149079445Y-82347243D01*
X149079445Y-82347243D02*
X148972874Y-82311720D01*
X148972874Y-82311720D02*
X148901826Y-82240672D01*
X148901826Y-82240672D02*
X148866303Y-82169624D01*
X148866303Y-82169624D02*
X148830779Y-82027529D01*
X148830779Y-82027529D02*
X148830779Y-81920958D01*
X148830779Y-81920958D02*
X148866303Y-81778862D01*
X148866303Y-81778862D02*
X148901826Y-81707815D01*
X148901826Y-81707815D02*
X148972874Y-81636767D01*
X148972874Y-81636767D02*
X149079445Y-81601243D01*
X149079445Y-81601243D02*
X149150493Y-81601243D01*
X149150493Y-81601243D02*
X149257064Y-81636767D01*
X149257064Y-81636767D02*
X149292588Y-81672291D01*
X149967541Y-82347243D02*
X149612303Y-82347243D01*
X149612303Y-82347243D02*
X149612303Y-81601243D01*
X150216208Y-82347243D02*
X150216208Y-81601243D01*
X150642493Y-82347243D02*
X150322779Y-81920958D01*
X150642493Y-81601243D02*
X150216208Y-82027529D01*
D11*
%TO.C,SW1*%
X133489000Y-81107000D02*
X133489000Y-92907000D01*
X137589000Y-81107000D02*
X133489000Y-81107000D01*
X137589000Y-92907000D02*
X133489000Y-92907000D01*
X139089000Y-87007000D02*
X140089000Y-87007000D01*
X139589000Y-86507000D02*
X139589000Y-87507000D01*
X141589000Y-81107000D02*
X145689000Y-81107000D01*
X145689000Y-81107000D02*
X145689000Y-83507000D01*
X145689000Y-85707000D02*
X145689000Y-88307000D01*
X145689000Y-90507000D02*
X145689000Y-92907000D01*
X145689000Y-92907000D02*
X141589000Y-92907000D01*
X142589000Y-87007000D02*
G75*
G03*
X142589000Y-87007000I-3000000J0D01*
G01*
%TD*%
M02*
