%TF.GenerationSoftware,KiCad,Pcbnew,7.0.6*%
%TF.CreationDate,2023-09-12T23:14:46-07:00*%
%TF.ProjectId,Rotary Encoder Board,526f7461-7279-4204-956e-636f64657220,rev?*%
%TF.SameCoordinates,Original*%
%TF.FileFunction,Legend,Bot*%
%TF.FilePolarity,Positive*%
%FSLAX46Y46*%
G04 Gerber Fmt 4.6, Leading zero omitted, Abs format (unit mm)*
G04 Created by KiCad (PCBNEW 7.0.6) date 2023-09-12 23:14:46*
%MOMM*%
%LPD*%
G01*
G04 APERTURE LIST*
%ADD10C,0.063640*%
%ADD11C,0.114440*%
%ADD12C,0.150000*%
%ADD13C,0.120000*%
G04 APERTURE END LIST*
D10*
X143474274Y-89090478D02*
X143755417Y-89090478D01*
X143614846Y-89090478D02*
X143614846Y-88598478D01*
X143614846Y-88598478D02*
X143661703Y-88668764D01*
X143661703Y-88668764D02*
X143708560Y-88715621D01*
X143708560Y-88715621D02*
X143755417Y-88739050D01*
X143169703Y-88598478D02*
X143122846Y-88598478D01*
X143122846Y-88598478D02*
X143075989Y-88621907D01*
X143075989Y-88621907D02*
X143052561Y-88645335D01*
X143052561Y-88645335D02*
X143029132Y-88692192D01*
X143029132Y-88692192D02*
X143005703Y-88785907D01*
X143005703Y-88785907D02*
X143005703Y-88903050D01*
X143005703Y-88903050D02*
X143029132Y-88996764D01*
X143029132Y-88996764D02*
X143052561Y-89043621D01*
X143052561Y-89043621D02*
X143075989Y-89067050D01*
X143075989Y-89067050D02*
X143122846Y-89090478D01*
X143122846Y-89090478D02*
X143169703Y-89090478D01*
X143169703Y-89090478D02*
X143216561Y-89067050D01*
X143216561Y-89067050D02*
X143239989Y-89043621D01*
X143239989Y-89043621D02*
X143263418Y-88996764D01*
X143263418Y-88996764D02*
X143286846Y-88903050D01*
X143286846Y-88903050D02*
X143286846Y-88785907D01*
X143286846Y-88785907D02*
X143263418Y-88692192D01*
X143263418Y-88692192D02*
X143239989Y-88645335D01*
X143239989Y-88645335D02*
X143216561Y-88621907D01*
X143216561Y-88621907D02*
X143169703Y-88598478D01*
X142794847Y-89090478D02*
X142794847Y-88598478D01*
X142513704Y-89090478D02*
X142724561Y-88809335D01*
X142513704Y-88598478D02*
X142794847Y-88879621D01*
D11*
X148037806Y-92417677D02*
X148286472Y-91989868D01*
X148464091Y-92417677D02*
X148464091Y-91519277D01*
X148464091Y-91519277D02*
X148179901Y-91519277D01*
X148179901Y-91519277D02*
X148108853Y-91562058D01*
X148108853Y-91562058D02*
X148073330Y-91604839D01*
X148073330Y-91604839D02*
X148037806Y-91690401D01*
X148037806Y-91690401D02*
X148037806Y-91818744D01*
X148037806Y-91818744D02*
X148073330Y-91904306D01*
X148073330Y-91904306D02*
X148108853Y-91947087D01*
X148108853Y-91947087D02*
X148179901Y-91989868D01*
X148179901Y-91989868D02*
X148464091Y-91989868D01*
X147789139Y-91519277D02*
X147327330Y-91519277D01*
X147327330Y-91519277D02*
X147575996Y-91861525D01*
X147575996Y-91861525D02*
X147469425Y-91861525D01*
X147469425Y-91861525D02*
X147398377Y-91904306D01*
X147398377Y-91904306D02*
X147362853Y-91947087D01*
X147362853Y-91947087D02*
X147327330Y-92032649D01*
X147327330Y-92032649D02*
X147327330Y-92246554D01*
X147327330Y-92246554D02*
X147362853Y-92332116D01*
X147362853Y-92332116D02*
X147398377Y-92374897D01*
X147398377Y-92374897D02*
X147469425Y-92417677D01*
X147469425Y-92417677D02*
X147682568Y-92417677D01*
X147682568Y-92417677D02*
X147753615Y-92374897D01*
X147753615Y-92374897D02*
X147789139Y-92332116D01*
X146439234Y-91818744D02*
X146439234Y-92717144D01*
X146439234Y-91861525D02*
X146368187Y-91818744D01*
X146368187Y-91818744D02*
X146226092Y-91818744D01*
X146226092Y-91818744D02*
X146155044Y-91861525D01*
X146155044Y-91861525D02*
X146119520Y-91904306D01*
X146119520Y-91904306D02*
X146083996Y-91989868D01*
X146083996Y-91989868D02*
X146083996Y-92246554D01*
X146083996Y-92246554D02*
X146119520Y-92332116D01*
X146119520Y-92332116D02*
X146155044Y-92374897D01*
X146155044Y-92374897D02*
X146226092Y-92417677D01*
X146226092Y-92417677D02*
X146368187Y-92417677D01*
X146368187Y-92417677D02*
X146439234Y-92374897D01*
X145444568Y-91818744D02*
X145444568Y-92417677D01*
X145764282Y-91818744D02*
X145764282Y-92289335D01*
X145764282Y-92289335D02*
X145728759Y-92374897D01*
X145728759Y-92374897D02*
X145657711Y-92417677D01*
X145657711Y-92417677D02*
X145551140Y-92417677D01*
X145551140Y-92417677D02*
X145480092Y-92374897D01*
X145480092Y-92374897D02*
X145444568Y-92332116D01*
X144982759Y-92417677D02*
X145053807Y-92374897D01*
X145053807Y-92374897D02*
X145089330Y-92289335D01*
X145089330Y-92289335D02*
X145089330Y-91519277D01*
X144591997Y-92417677D02*
X144663045Y-92374897D01*
X144663045Y-92374897D02*
X144698568Y-92289335D01*
X144698568Y-92289335D02*
X144698568Y-91519277D01*
X144343330Y-92374897D02*
X144272283Y-92417677D01*
X144272283Y-92417677D02*
X144130187Y-92417677D01*
X144130187Y-92417677D02*
X144059140Y-92374897D01*
X144059140Y-92374897D02*
X144023616Y-92289335D01*
X144023616Y-92289335D02*
X144023616Y-92246554D01*
X144023616Y-92246554D02*
X144059140Y-92160992D01*
X144059140Y-92160992D02*
X144130187Y-92118211D01*
X144130187Y-92118211D02*
X144236759Y-92118211D01*
X144236759Y-92118211D02*
X144307806Y-92075430D01*
X144307806Y-92075430D02*
X144343330Y-91989868D01*
X144343330Y-91989868D02*
X144343330Y-91947087D01*
X144343330Y-91947087D02*
X144307806Y-91861525D01*
X144307806Y-91861525D02*
X144236759Y-91818744D01*
X144236759Y-91818744D02*
X144130187Y-91818744D01*
X144130187Y-91818744D02*
X144059140Y-91861525D01*
X148499615Y-93821321D02*
X148393044Y-93864101D01*
X148393044Y-93864101D02*
X148215425Y-93864101D01*
X148215425Y-93864101D02*
X148144377Y-93821321D01*
X148144377Y-93821321D02*
X148108853Y-93778540D01*
X148108853Y-93778540D02*
X148073330Y-93692978D01*
X148073330Y-93692978D02*
X148073330Y-93607416D01*
X148073330Y-93607416D02*
X148108853Y-93521854D01*
X148108853Y-93521854D02*
X148144377Y-93479073D01*
X148144377Y-93479073D02*
X148215425Y-93436292D01*
X148215425Y-93436292D02*
X148357520Y-93393511D01*
X148357520Y-93393511D02*
X148428568Y-93350730D01*
X148428568Y-93350730D02*
X148464091Y-93307949D01*
X148464091Y-93307949D02*
X148499615Y-93222387D01*
X148499615Y-93222387D02*
X148499615Y-93136825D01*
X148499615Y-93136825D02*
X148464091Y-93051263D01*
X148464091Y-93051263D02*
X148428568Y-93008482D01*
X148428568Y-93008482D02*
X148357520Y-92965701D01*
X148357520Y-92965701D02*
X148179901Y-92965701D01*
X148179901Y-92965701D02*
X148073330Y-93008482D01*
X147824663Y-92965701D02*
X147647044Y-93864101D01*
X147647044Y-93864101D02*
X147504949Y-93222387D01*
X147504949Y-93222387D02*
X147362854Y-93864101D01*
X147362854Y-93864101D02*
X147185235Y-92965701D01*
X147007616Y-92965701D02*
X146581330Y-92965701D01*
X146794473Y-93864101D02*
X146794473Y-92965701D01*
X145764282Y-93864101D02*
X145764282Y-92965701D01*
X145444568Y-93864101D02*
X145444568Y-93393511D01*
X145444568Y-93393511D02*
X145480092Y-93307949D01*
X145480092Y-93307949D02*
X145551140Y-93265168D01*
X145551140Y-93265168D02*
X145657711Y-93265168D01*
X145657711Y-93265168D02*
X145728759Y-93307949D01*
X145728759Y-93307949D02*
X145764282Y-93350730D01*
X145089330Y-93864101D02*
X145089330Y-93265168D01*
X145089330Y-92965701D02*
X145124854Y-93008482D01*
X145124854Y-93008482D02*
X145089330Y-93051263D01*
X145089330Y-93051263D02*
X145053807Y-93008482D01*
X145053807Y-93008482D02*
X145089330Y-92965701D01*
X145089330Y-92965701D02*
X145089330Y-93051263D01*
X144414378Y-93265168D02*
X144414378Y-93992444D01*
X144414378Y-93992444D02*
X144449902Y-94078006D01*
X144449902Y-94078006D02*
X144485426Y-94120787D01*
X144485426Y-94120787D02*
X144556473Y-94163568D01*
X144556473Y-94163568D02*
X144663045Y-94163568D01*
X144663045Y-94163568D02*
X144734092Y-94120787D01*
X144414378Y-93821321D02*
X144485426Y-93864101D01*
X144485426Y-93864101D02*
X144627521Y-93864101D01*
X144627521Y-93864101D02*
X144698569Y-93821321D01*
X144698569Y-93821321D02*
X144734092Y-93778540D01*
X144734092Y-93778540D02*
X144769616Y-93692978D01*
X144769616Y-93692978D02*
X144769616Y-93436292D01*
X144769616Y-93436292D02*
X144734092Y-93350730D01*
X144734092Y-93350730D02*
X144698569Y-93307949D01*
X144698569Y-93307949D02*
X144627521Y-93265168D01*
X144627521Y-93265168D02*
X144485426Y-93265168D01*
X144485426Y-93265168D02*
X144414378Y-93307949D01*
X144059140Y-93864101D02*
X144059140Y-92965701D01*
X143739426Y-93864101D02*
X143739426Y-93393511D01*
X143739426Y-93393511D02*
X143774950Y-93307949D01*
X143774950Y-93307949D02*
X143845998Y-93265168D01*
X143845998Y-93265168D02*
X143952569Y-93265168D01*
X143952569Y-93265168D02*
X144023617Y-93307949D01*
X144023617Y-93307949D02*
X144059140Y-93350730D01*
D10*
X139241936Y-89011478D02*
X139523079Y-89011478D01*
X139382508Y-89011478D02*
X139382508Y-88519478D01*
X139382508Y-88519478D02*
X139429365Y-88589764D01*
X139429365Y-88589764D02*
X139476222Y-88636621D01*
X139476222Y-88636621D02*
X139523079Y-88660050D01*
X138937365Y-88519478D02*
X138890508Y-88519478D01*
X138890508Y-88519478D02*
X138843651Y-88542907D01*
X138843651Y-88542907D02*
X138820223Y-88566335D01*
X138820223Y-88566335D02*
X138796794Y-88613192D01*
X138796794Y-88613192D02*
X138773365Y-88706907D01*
X138773365Y-88706907D02*
X138773365Y-88824050D01*
X138773365Y-88824050D02*
X138796794Y-88917764D01*
X138796794Y-88917764D02*
X138820223Y-88964621D01*
X138820223Y-88964621D02*
X138843651Y-88988050D01*
X138843651Y-88988050D02*
X138890508Y-89011478D01*
X138890508Y-89011478D02*
X138937365Y-89011478D01*
X138937365Y-89011478D02*
X138984223Y-88988050D01*
X138984223Y-88988050D02*
X139007651Y-88964621D01*
X139007651Y-88964621D02*
X139031080Y-88917764D01*
X139031080Y-88917764D02*
X139054508Y-88824050D01*
X139054508Y-88824050D02*
X139054508Y-88706907D01*
X139054508Y-88706907D02*
X139031080Y-88613192D01*
X139031080Y-88613192D02*
X139007651Y-88566335D01*
X139007651Y-88566335D02*
X138984223Y-88542907D01*
X138984223Y-88542907D02*
X138937365Y-88519478D01*
X138562509Y-89011478D02*
X138562509Y-88519478D01*
X138281366Y-89011478D02*
X138492223Y-88730335D01*
X138281366Y-88519478D02*
X138562509Y-88800621D01*
X136107105Y-88998978D02*
X136388248Y-88998978D01*
X136247677Y-88998978D02*
X136247677Y-88506978D01*
X136247677Y-88506978D02*
X136294534Y-88577264D01*
X136294534Y-88577264D02*
X136341391Y-88624121D01*
X136341391Y-88624121D02*
X136388248Y-88647550D01*
X135802534Y-88506978D02*
X135755677Y-88506978D01*
X135755677Y-88506978D02*
X135708820Y-88530407D01*
X135708820Y-88530407D02*
X135685392Y-88553835D01*
X135685392Y-88553835D02*
X135661963Y-88600692D01*
X135661963Y-88600692D02*
X135638534Y-88694407D01*
X135638534Y-88694407D02*
X135638534Y-88811550D01*
X135638534Y-88811550D02*
X135661963Y-88905264D01*
X135661963Y-88905264D02*
X135685392Y-88952121D01*
X135685392Y-88952121D02*
X135708820Y-88975550D01*
X135708820Y-88975550D02*
X135755677Y-88998978D01*
X135755677Y-88998978D02*
X135802534Y-88998978D01*
X135802534Y-88998978D02*
X135849392Y-88975550D01*
X135849392Y-88975550D02*
X135872820Y-88952121D01*
X135872820Y-88952121D02*
X135896249Y-88905264D01*
X135896249Y-88905264D02*
X135919677Y-88811550D01*
X135919677Y-88811550D02*
X135919677Y-88694407D01*
X135919677Y-88694407D02*
X135896249Y-88600692D01*
X135896249Y-88600692D02*
X135872820Y-88553835D01*
X135872820Y-88553835D02*
X135849392Y-88530407D01*
X135849392Y-88530407D02*
X135802534Y-88506978D01*
X135427678Y-88998978D02*
X135427678Y-88506978D01*
X135146535Y-88998978D02*
X135357392Y-88717835D01*
X135146535Y-88506978D02*
X135427678Y-88788121D01*
D12*
X139064497Y-84354819D02*
X139397830Y-83878628D01*
X139635925Y-84354819D02*
X139635925Y-83354819D01*
X139635925Y-83354819D02*
X139254973Y-83354819D01*
X139254973Y-83354819D02*
X139159735Y-83402438D01*
X139159735Y-83402438D02*
X139112116Y-83450057D01*
X139112116Y-83450057D02*
X139064497Y-83545295D01*
X139064497Y-83545295D02*
X139064497Y-83688152D01*
X139064497Y-83688152D02*
X139112116Y-83783390D01*
X139112116Y-83783390D02*
X139159735Y-83831009D01*
X139159735Y-83831009D02*
X139254973Y-83878628D01*
X139254973Y-83878628D02*
X139635925Y-83878628D01*
X138112116Y-84354819D02*
X138683544Y-84354819D01*
X138397830Y-84354819D02*
X138397830Y-83354819D01*
X138397830Y-83354819D02*
X138493068Y-83497676D01*
X138493068Y-83497676D02*
X138588306Y-83592914D01*
X138588306Y-83592914D02*
X138683544Y-83640533D01*
X135979666Y-84367319D02*
X136312999Y-83891128D01*
X136551094Y-84367319D02*
X136551094Y-83367319D01*
X136551094Y-83367319D02*
X136170142Y-83367319D01*
X136170142Y-83367319D02*
X136074904Y-83414938D01*
X136074904Y-83414938D02*
X136027285Y-83462557D01*
X136027285Y-83462557D02*
X135979666Y-83557795D01*
X135979666Y-83557795D02*
X135979666Y-83700652D01*
X135979666Y-83700652D02*
X136027285Y-83795890D01*
X136027285Y-83795890D02*
X136074904Y-83843509D01*
X136074904Y-83843509D02*
X136170142Y-83891128D01*
X136170142Y-83891128D02*
X136551094Y-83891128D01*
X135598713Y-83462557D02*
X135551094Y-83414938D01*
X135551094Y-83414938D02*
X135455856Y-83367319D01*
X135455856Y-83367319D02*
X135217761Y-83367319D01*
X135217761Y-83367319D02*
X135122523Y-83414938D01*
X135122523Y-83414938D02*
X135074904Y-83462557D01*
X135074904Y-83462557D02*
X135027285Y-83557795D01*
X135027285Y-83557795D02*
X135027285Y-83653033D01*
X135027285Y-83653033D02*
X135074904Y-83795890D01*
X135074904Y-83795890D02*
X135646332Y-84367319D01*
X135646332Y-84367319D02*
X135027285Y-84367319D01*
X145454666Y-87068819D02*
X145787999Y-86592628D01*
X146026094Y-87068819D02*
X146026094Y-86068819D01*
X146026094Y-86068819D02*
X145645142Y-86068819D01*
X145645142Y-86068819D02*
X145549904Y-86116438D01*
X145549904Y-86116438D02*
X145502285Y-86164057D01*
X145502285Y-86164057D02*
X145454666Y-86259295D01*
X145454666Y-86259295D02*
X145454666Y-86402152D01*
X145454666Y-86402152D02*
X145502285Y-86497390D01*
X145502285Y-86497390D02*
X145549904Y-86545009D01*
X145549904Y-86545009D02*
X145645142Y-86592628D01*
X145645142Y-86592628D02*
X146026094Y-86592628D01*
X145121332Y-86068819D02*
X144502285Y-86068819D01*
X144502285Y-86068819D02*
X144835618Y-86449771D01*
X144835618Y-86449771D02*
X144692761Y-86449771D01*
X144692761Y-86449771D02*
X144597523Y-86497390D01*
X144597523Y-86497390D02*
X144549904Y-86545009D01*
X144549904Y-86545009D02*
X144502285Y-86640247D01*
X144502285Y-86640247D02*
X144502285Y-86878342D01*
X144502285Y-86878342D02*
X144549904Y-86973580D01*
X144549904Y-86973580D02*
X144597523Y-87021200D01*
X144597523Y-87021200D02*
X144692761Y-87068819D01*
X144692761Y-87068819D02*
X144978475Y-87068819D01*
X144978475Y-87068819D02*
X145073713Y-87021200D01*
X145073713Y-87021200D02*
X145121332Y-86973580D01*
D13*
%TO.C,R1*%
X139632831Y-86172936D02*
X139632831Y-86627064D01*
X138162831Y-86172936D02*
X138162831Y-86627064D01*
%TO.C,R2*%
X136498000Y-86185436D02*
X136498000Y-86639564D01*
X135028000Y-86185436D02*
X135028000Y-86639564D01*
%TO.C,J1*%
X150821190Y-80620000D02*
X153481190Y-80620000D01*
X150821190Y-90840000D02*
X150821190Y-80620000D01*
X150821190Y-90840000D02*
X153481190Y-90840000D01*
X150821190Y-92110000D02*
X150821190Y-93440000D01*
X150821190Y-93440000D02*
X152151190Y-93440000D01*
X153481190Y-90840000D02*
X153481190Y-80620000D01*
%TO.C,R3*%
X143991000Y-86259936D02*
X143991000Y-86714064D01*
X142521000Y-86259936D02*
X142521000Y-86714064D01*
%TD*%
M02*
