%TF.GenerationSoftware,KiCad,Pcbnew,7.0.6*%
%TF.CreationDate,2023-09-12T23:14:46-07:00*%
%TF.ProjectId,Rotary Encoder Board,526f7461-7279-4204-956e-636f64657220,rev?*%
%TF.SameCoordinates,Original*%
%TF.FileFunction,Copper,L1,Top*%
%TF.FilePolarity,Positive*%
%FSLAX46Y46*%
G04 Gerber Fmt 4.6, Leading zero omitted, Abs format (unit mm)*
G04 Created by KiCad (PCBNEW 7.0.6) date 2023-09-12 23:14:46*
%MOMM*%
%LPD*%
G01*
G04 APERTURE LIST*
%TA.AperFunction,ComponentPad*%
%ADD10R,2.000000X2.000000*%
%TD*%
%TA.AperFunction,ComponentPad*%
%ADD11C,2.000000*%
%TD*%
%TA.AperFunction,ComponentPad*%
%ADD12R,3.200000X2.000000*%
%TD*%
%TA.AperFunction,ComponentPad*%
%ADD13R,1.700000X1.700000*%
%TD*%
%TA.AperFunction,ComponentPad*%
%ADD14O,1.700000X1.700000*%
%TD*%
G04 APERTURE END LIST*
D10*
%TO.P,SW1,A,A*%
%TO.N,/CLK*%
X132089000Y-84507000D03*
D11*
%TO.P,SW1,B,B*%
%TO.N,/DT*%
X132089000Y-89507000D03*
%TO.P,SW1,C,C*%
%TO.N,GND*%
X132089000Y-87007000D03*
D12*
%TO.P,SW1,MP*%
X139589000Y-81407000D03*
X139589000Y-92607000D03*
D11*
%TO.P,SW1,S1,S1*%
X146589000Y-89507000D03*
%TO.P,SW1,S2,S2*%
%TO.N,/SW*%
X146589000Y-84507000D03*
%TD*%
D13*
%TO.P,J1,1,Pin_1*%
%TO.N,GND*%
X152151190Y-92110000D03*
D14*
%TO.P,J1,2,Pin_2*%
%TO.N,+5V*%
X152151190Y-89570000D03*
%TO.P,J1,3,Pin_3*%
%TO.N,/SW*%
X152151190Y-87030000D03*
%TO.P,J1,4,Pin_4*%
%TO.N,/DT*%
X152151190Y-84490000D03*
%TO.P,J1,5,Pin_5*%
%TO.N,/CLK*%
X152151190Y-81950000D03*
%TD*%
%TA.AperFunction,Conductor*%
%TO.N,GND*%
G36*
X154058539Y-79266185D02*
G01*
X154104294Y-79318989D01*
X154115500Y-79370500D01*
X154115500Y-94629500D01*
X154095815Y-94696539D01*
X154043011Y-94742294D01*
X153991500Y-94753500D01*
X130020500Y-94753500D01*
X129953461Y-94733815D01*
X129907706Y-94681011D01*
X129896500Y-94629500D01*
X129896500Y-93654844D01*
X137489000Y-93654844D01*
X137495401Y-93714372D01*
X137495403Y-93714379D01*
X137545645Y-93849086D01*
X137545649Y-93849093D01*
X137631809Y-93964187D01*
X137631812Y-93964190D01*
X137746906Y-94050350D01*
X137746913Y-94050354D01*
X137881620Y-94100596D01*
X137881627Y-94100598D01*
X137941155Y-94106999D01*
X137941172Y-94107000D01*
X139339000Y-94107000D01*
X139339000Y-93357000D01*
X139839000Y-93357000D01*
X139839000Y-94107000D01*
X141236828Y-94107000D01*
X141236844Y-94106999D01*
X141296372Y-94100598D01*
X141296379Y-94100596D01*
X141431086Y-94050354D01*
X141431093Y-94050350D01*
X141546187Y-93964190D01*
X141546190Y-93964187D01*
X141632350Y-93849093D01*
X141632354Y-93849086D01*
X141682596Y-93714379D01*
X141682598Y-93714372D01*
X141688999Y-93654844D01*
X141689000Y-93654827D01*
X141689000Y-92857000D01*
X140947044Y-92857000D01*
X140982634Y-92738123D01*
X140992828Y-92563094D01*
X140962384Y-92390433D01*
X140947962Y-92357000D01*
X141689000Y-92357000D01*
X141689000Y-91559172D01*
X141688999Y-91559155D01*
X141682598Y-91499627D01*
X141682596Y-91499620D01*
X141632354Y-91364913D01*
X141632350Y-91364906D01*
X141546190Y-91249812D01*
X141546187Y-91249809D01*
X141431093Y-91163649D01*
X141431086Y-91163645D01*
X141296379Y-91113403D01*
X141296372Y-91113401D01*
X141236844Y-91107000D01*
X139839000Y-91107000D01*
X139839000Y-91857000D01*
X139339000Y-91857000D01*
X139339000Y-91107000D01*
X137941155Y-91107000D01*
X137881627Y-91113401D01*
X137881620Y-91113403D01*
X137746913Y-91163645D01*
X137746906Y-91163649D01*
X137631812Y-91249809D01*
X137631809Y-91249812D01*
X137545649Y-91364906D01*
X137545645Y-91364913D01*
X137495403Y-91499620D01*
X137495401Y-91499627D01*
X137489000Y-91559155D01*
X137489000Y-92357000D01*
X138230956Y-92357000D01*
X138195366Y-92475877D01*
X138185172Y-92650906D01*
X138215616Y-92823567D01*
X138230038Y-92857000D01*
X137489000Y-92857000D01*
X137489000Y-93654844D01*
X129896500Y-93654844D01*
X129896500Y-89507005D01*
X130583357Y-89507005D01*
X130603890Y-89754812D01*
X130603892Y-89754824D01*
X130664936Y-89995881D01*
X130764826Y-90223606D01*
X130900833Y-90431782D01*
X130909688Y-90441401D01*
X131069256Y-90614738D01*
X131265491Y-90767474D01*
X131265493Y-90767475D01*
X131483332Y-90885364D01*
X131484190Y-90885828D01*
X131540220Y-90905063D01*
X131717964Y-90966083D01*
X131719386Y-90966571D01*
X131964665Y-91007500D01*
X132213335Y-91007500D01*
X132458614Y-90966571D01*
X132693810Y-90885828D01*
X132912509Y-90767474D01*
X133108744Y-90614738D01*
X133277164Y-90431785D01*
X133413173Y-90223607D01*
X133513063Y-89995881D01*
X133574108Y-89754821D01*
X133594643Y-89507005D01*
X145083859Y-89507005D01*
X145104385Y-89754729D01*
X145104387Y-89754738D01*
X145165412Y-89995717D01*
X145265266Y-90223364D01*
X145365564Y-90376882D01*
X146105923Y-89636523D01*
X146129507Y-89716844D01*
X146207239Y-89837798D01*
X146315900Y-89931952D01*
X146446685Y-89991680D01*
X146456466Y-89993086D01*
X145718942Y-90730609D01*
X145765768Y-90767055D01*
X145765770Y-90767056D01*
X145984385Y-90885364D01*
X145984396Y-90885369D01*
X146219506Y-90966083D01*
X146464707Y-91007000D01*
X146713293Y-91007000D01*
X146958493Y-90966083D01*
X147193603Y-90885369D01*
X147193614Y-90885364D01*
X147412228Y-90767057D01*
X147412231Y-90767055D01*
X147459056Y-90730609D01*
X146721533Y-89993086D01*
X146731315Y-89991680D01*
X146862100Y-89931952D01*
X146970761Y-89837798D01*
X147048493Y-89716844D01*
X147072076Y-89636524D01*
X147812434Y-90376882D01*
X147912731Y-90223369D01*
X148012587Y-89995717D01*
X148073612Y-89754738D01*
X148073614Y-89754729D01*
X148088921Y-89570000D01*
X150795531Y-89570000D01*
X150816126Y-89805403D01*
X150816128Y-89805413D01*
X150877284Y-90033655D01*
X150877286Y-90033659D01*
X150877287Y-90033663D01*
X150965746Y-90223364D01*
X150977155Y-90247830D01*
X150977157Y-90247834D01*
X151067518Y-90376882D01*
X151112691Y-90441396D01*
X151112696Y-90441402D01*
X151235008Y-90563714D01*
X151268493Y-90625037D01*
X151263509Y-90694729D01*
X151221637Y-90750662D01*
X151190661Y-90767577D01*
X151059102Y-90816646D01*
X151059096Y-90816649D01*
X150944002Y-90902809D01*
X150943999Y-90902812D01*
X150857839Y-91017906D01*
X150857835Y-91017913D01*
X150807593Y-91152620D01*
X150807591Y-91152627D01*
X150801190Y-91212155D01*
X150801190Y-91860000D01*
X151717504Y-91860000D01*
X151691697Y-91900156D01*
X151651190Y-92038111D01*
X151651190Y-92181889D01*
X151691697Y-92319844D01*
X151717504Y-92360000D01*
X150801190Y-92360000D01*
X150801190Y-93007844D01*
X150807591Y-93067372D01*
X150807593Y-93067379D01*
X150857835Y-93202086D01*
X150857839Y-93202093D01*
X150943999Y-93317187D01*
X150944002Y-93317190D01*
X151059096Y-93403350D01*
X151059103Y-93403354D01*
X151193810Y-93453596D01*
X151193817Y-93453598D01*
X151253345Y-93459999D01*
X151253362Y-93460000D01*
X151901190Y-93460000D01*
X151901190Y-92545501D01*
X152008875Y-92594680D01*
X152115427Y-92610000D01*
X152186953Y-92610000D01*
X152293505Y-92594680D01*
X152401190Y-92545501D01*
X152401190Y-93460000D01*
X153049018Y-93460000D01*
X153049034Y-93459999D01*
X153108562Y-93453598D01*
X153108569Y-93453596D01*
X153243276Y-93403354D01*
X153243283Y-93403350D01*
X153358377Y-93317190D01*
X153358380Y-93317187D01*
X153444540Y-93202093D01*
X153444544Y-93202086D01*
X153494786Y-93067379D01*
X153494788Y-93067372D01*
X153501189Y-93007844D01*
X153501190Y-93007827D01*
X153501190Y-92360000D01*
X152584876Y-92360000D01*
X152610683Y-92319844D01*
X152651190Y-92181889D01*
X152651190Y-92038111D01*
X152610683Y-91900156D01*
X152584876Y-91860000D01*
X153501190Y-91860000D01*
X153501190Y-91212172D01*
X153501189Y-91212155D01*
X153494788Y-91152627D01*
X153494786Y-91152620D01*
X153444544Y-91017913D01*
X153444540Y-91017906D01*
X153358380Y-90902812D01*
X153358377Y-90902809D01*
X153243283Y-90816649D01*
X153243278Y-90816646D01*
X153111718Y-90767577D01*
X153055785Y-90725705D01*
X153031368Y-90660241D01*
X153046220Y-90591968D01*
X153067365Y-90563720D01*
X153189685Y-90441401D01*
X153325225Y-90247830D01*
X153425093Y-90033663D01*
X153486253Y-89805408D01*
X153506849Y-89570000D01*
X153486253Y-89334592D01*
X153425093Y-89106337D01*
X153325225Y-88892171D01*
X153189685Y-88698599D01*
X153189684Y-88698597D01*
X153022592Y-88531506D01*
X153022586Y-88531501D01*
X152837032Y-88401575D01*
X152793407Y-88346998D01*
X152786213Y-88277500D01*
X152817736Y-88215145D01*
X152837032Y-88198425D01*
X152936702Y-88128635D01*
X153022591Y-88068495D01*
X153189685Y-87901401D01*
X153325225Y-87707830D01*
X153425093Y-87493663D01*
X153486253Y-87265408D01*
X153506849Y-87030000D01*
X153486253Y-86794592D01*
X153425093Y-86566337D01*
X153325225Y-86352171D01*
X153282136Y-86290632D01*
X153189684Y-86158597D01*
X153022592Y-85991506D01*
X153022586Y-85991501D01*
X152837032Y-85861575D01*
X152793407Y-85806998D01*
X152786213Y-85737500D01*
X152817736Y-85675145D01*
X152837032Y-85658425D01*
X152899423Y-85614738D01*
X153022591Y-85528495D01*
X153189685Y-85361401D01*
X153325225Y-85167830D01*
X153425093Y-84953663D01*
X153486253Y-84725408D01*
X153506849Y-84490000D01*
X153486253Y-84254592D01*
X153425093Y-84026337D01*
X153325225Y-83812171D01*
X153189685Y-83618599D01*
X153189684Y-83618597D01*
X153022592Y-83451506D01*
X153022586Y-83451501D01*
X152837032Y-83321575D01*
X152793407Y-83266998D01*
X152786213Y-83197500D01*
X152817736Y-83135145D01*
X152837032Y-83118425D01*
X152859216Y-83102891D01*
X153022591Y-82988495D01*
X153189685Y-82821401D01*
X153325225Y-82627830D01*
X153425093Y-82413663D01*
X153486253Y-82185408D01*
X153506849Y-81950000D01*
X153486253Y-81714592D01*
X153425093Y-81486337D01*
X153325225Y-81272171D01*
X153210215Y-81107918D01*
X153189684Y-81078597D01*
X153022592Y-80911506D01*
X153022585Y-80911501D01*
X152829024Y-80775967D01*
X152829020Y-80775965D01*
X152829018Y-80775964D01*
X152614853Y-80676097D01*
X152614849Y-80676096D01*
X152614845Y-80676094D01*
X152386603Y-80614938D01*
X152386593Y-80614936D01*
X152151191Y-80594341D01*
X152151189Y-80594341D01*
X151915786Y-80614936D01*
X151915776Y-80614938D01*
X151687534Y-80676094D01*
X151687525Y-80676098D01*
X151473361Y-80775964D01*
X151473359Y-80775965D01*
X151279787Y-80911505D01*
X151112695Y-81078597D01*
X150977155Y-81272169D01*
X150977154Y-81272171D01*
X150877288Y-81486335D01*
X150877284Y-81486344D01*
X150816128Y-81714586D01*
X150816126Y-81714596D01*
X150795531Y-81949999D01*
X150795531Y-81950000D01*
X150816126Y-82185403D01*
X150816128Y-82185413D01*
X150877284Y-82413655D01*
X150877286Y-82413659D01*
X150877287Y-82413663D01*
X150924249Y-82514372D01*
X150977155Y-82627830D01*
X150977157Y-82627834D01*
X151112691Y-82821395D01*
X151112696Y-82821402D01*
X151279787Y-82988493D01*
X151279793Y-82988498D01*
X151465348Y-83118425D01*
X151508973Y-83173002D01*
X151516167Y-83242500D01*
X151484644Y-83304855D01*
X151465348Y-83321575D01*
X151279787Y-83451505D01*
X151112695Y-83618597D01*
X150977155Y-83812169D01*
X150977154Y-83812171D01*
X150877288Y-84026335D01*
X150877284Y-84026344D01*
X150816128Y-84254586D01*
X150816126Y-84254596D01*
X150795531Y-84489999D01*
X150795531Y-84490000D01*
X150816126Y-84725403D01*
X150816128Y-84725413D01*
X150877284Y-84953655D01*
X150877286Y-84953659D01*
X150877287Y-84953663D01*
X150896974Y-84995881D01*
X150977155Y-85167830D01*
X150977157Y-85167834D01*
X151112691Y-85361395D01*
X151112696Y-85361402D01*
X151279787Y-85528493D01*
X151279793Y-85528498D01*
X151465348Y-85658425D01*
X151508973Y-85713002D01*
X151516167Y-85782500D01*
X151484644Y-85844855D01*
X151465348Y-85861575D01*
X151279787Y-85991505D01*
X151112695Y-86158597D01*
X150977155Y-86352169D01*
X150977154Y-86352171D01*
X150877288Y-86566335D01*
X150877284Y-86566344D01*
X150816128Y-86794586D01*
X150816126Y-86794596D01*
X150795531Y-87029999D01*
X150795531Y-87030000D01*
X150816126Y-87265403D01*
X150816128Y-87265413D01*
X150877284Y-87493655D01*
X150877286Y-87493659D01*
X150877287Y-87493663D01*
X150977155Y-87707830D01*
X150977157Y-87707834D01*
X151112691Y-87901395D01*
X151112696Y-87901402D01*
X151279787Y-88068493D01*
X151279793Y-88068498D01*
X151465348Y-88198425D01*
X151508973Y-88253002D01*
X151516167Y-88322500D01*
X151484644Y-88384855D01*
X151465348Y-88401575D01*
X151279787Y-88531505D01*
X151112695Y-88698597D01*
X150977155Y-88892169D01*
X150977154Y-88892171D01*
X150877288Y-89106335D01*
X150877284Y-89106344D01*
X150816128Y-89334586D01*
X150816126Y-89334596D01*
X150795531Y-89569999D01*
X150795531Y-89570000D01*
X148088921Y-89570000D01*
X148094141Y-89507005D01*
X148094141Y-89506994D01*
X148073614Y-89259270D01*
X148073612Y-89259261D01*
X148012587Y-89018282D01*
X147912731Y-88790630D01*
X147812434Y-88637116D01*
X147072076Y-89377475D01*
X147048493Y-89297156D01*
X146970761Y-89176202D01*
X146862100Y-89082048D01*
X146731315Y-89022320D01*
X146721534Y-89020913D01*
X147459057Y-88283390D01*
X147459056Y-88283389D01*
X147412229Y-88246943D01*
X147193614Y-88128635D01*
X147193603Y-88128630D01*
X146958493Y-88047916D01*
X146713293Y-88007000D01*
X146464707Y-88007000D01*
X146219506Y-88047916D01*
X145984396Y-88128630D01*
X145984390Y-88128632D01*
X145765761Y-88246949D01*
X145718942Y-88283388D01*
X145718942Y-88283390D01*
X146456466Y-89020913D01*
X146446685Y-89022320D01*
X146315900Y-89082048D01*
X146207239Y-89176202D01*
X146129507Y-89297156D01*
X146105923Y-89377475D01*
X145365564Y-88637116D01*
X145265267Y-88790632D01*
X145165412Y-89018282D01*
X145104387Y-89259261D01*
X145104385Y-89259270D01*
X145083859Y-89506994D01*
X145083859Y-89507005D01*
X133594643Y-89507005D01*
X133594643Y-89507000D01*
X133588686Y-89435111D01*
X133574109Y-89259187D01*
X133574107Y-89259175D01*
X133513063Y-89018118D01*
X133413173Y-88790393D01*
X133277166Y-88582217D01*
X133230482Y-88531505D01*
X133108744Y-88399262D01*
X133041595Y-88346998D01*
X133007623Y-88320556D01*
X132966810Y-88263846D01*
X132962697Y-88234249D01*
X132221533Y-87493086D01*
X132231315Y-87491680D01*
X132362100Y-87431952D01*
X132470761Y-87337798D01*
X132548493Y-87216844D01*
X132572076Y-87136524D01*
X133312434Y-87876882D01*
X133412731Y-87723369D01*
X133512587Y-87495717D01*
X133573612Y-87254738D01*
X133573614Y-87254729D01*
X133594141Y-87007005D01*
X133594141Y-87006994D01*
X133573614Y-86759270D01*
X133573612Y-86759261D01*
X133512587Y-86518282D01*
X133412732Y-86290632D01*
X133300515Y-86118870D01*
X133280328Y-86051981D01*
X133299508Y-85984795D01*
X133330013Y-85951782D01*
X133331329Y-85950796D01*
X133331331Y-85950796D01*
X133446546Y-85864546D01*
X133532796Y-85749331D01*
X133583091Y-85614483D01*
X133589500Y-85554873D01*
X133589500Y-84507005D01*
X145083357Y-84507005D01*
X145103890Y-84754812D01*
X145103892Y-84754824D01*
X145164936Y-84995881D01*
X145264826Y-85223606D01*
X145400833Y-85431782D01*
X145400836Y-85431785D01*
X145569256Y-85614738D01*
X145765491Y-85767474D01*
X145765493Y-85767475D01*
X145908478Y-85844855D01*
X145984190Y-85885828D01*
X146219386Y-85966571D01*
X146464665Y-86007500D01*
X146713335Y-86007500D01*
X146958614Y-85966571D01*
X147193810Y-85885828D01*
X147412509Y-85767474D01*
X147608744Y-85614738D01*
X147777164Y-85431785D01*
X147913173Y-85223607D01*
X148013063Y-84995881D01*
X148074108Y-84754821D01*
X148094643Y-84507000D01*
X148093234Y-84490000D01*
X148074109Y-84259187D01*
X148074107Y-84259175D01*
X148013063Y-84018118D01*
X147913173Y-83790393D01*
X147777166Y-83582217D01*
X147755557Y-83558744D01*
X147608744Y-83399262D01*
X147412509Y-83246526D01*
X147412507Y-83246525D01*
X147412506Y-83246524D01*
X147193811Y-83128172D01*
X147193802Y-83128169D01*
X146958616Y-83047429D01*
X146713335Y-83006500D01*
X146464665Y-83006500D01*
X146219383Y-83047429D01*
X145984197Y-83128169D01*
X145984188Y-83128172D01*
X145765493Y-83246524D01*
X145569257Y-83399261D01*
X145400833Y-83582217D01*
X145264826Y-83790393D01*
X145164936Y-84018118D01*
X145103892Y-84259175D01*
X145103890Y-84259187D01*
X145083357Y-84506994D01*
X145083357Y-84507005D01*
X133589500Y-84507005D01*
X133589499Y-83459128D01*
X133583091Y-83399517D01*
X133547784Y-83304855D01*
X133532797Y-83264671D01*
X133532793Y-83264664D01*
X133446547Y-83149455D01*
X133446544Y-83149452D01*
X133331335Y-83063206D01*
X133331328Y-83063202D01*
X133196482Y-83012908D01*
X133196483Y-83012908D01*
X133136883Y-83006501D01*
X133136881Y-83006500D01*
X133136873Y-83006500D01*
X133136864Y-83006500D01*
X131041129Y-83006500D01*
X131041123Y-83006501D01*
X130981516Y-83012908D01*
X130846671Y-83063202D01*
X130846664Y-83063206D01*
X130731455Y-83149452D01*
X130731452Y-83149455D01*
X130645206Y-83264664D01*
X130645202Y-83264671D01*
X130594908Y-83399517D01*
X130589320Y-83451501D01*
X130588501Y-83459123D01*
X130588500Y-83459135D01*
X130588500Y-85554870D01*
X130588501Y-85554876D01*
X130594908Y-85614483D01*
X130645202Y-85749328D01*
X130645206Y-85749335D01*
X130731452Y-85864544D01*
X130731455Y-85864547D01*
X130847986Y-85951783D01*
X130889857Y-86007717D01*
X130894841Y-86077408D01*
X130877484Y-86118870D01*
X130765267Y-86290631D01*
X130665412Y-86518282D01*
X130604387Y-86759261D01*
X130604385Y-86759270D01*
X130583858Y-87006994D01*
X130583858Y-87007005D01*
X130604385Y-87254729D01*
X130604387Y-87254738D01*
X130665412Y-87495717D01*
X130765266Y-87723364D01*
X130865564Y-87876882D01*
X131605922Y-87136523D01*
X131629507Y-87216844D01*
X131707239Y-87337798D01*
X131815900Y-87431952D01*
X131946685Y-87491680D01*
X131956466Y-87493086D01*
X131213100Y-88236450D01*
X131202482Y-88283148D01*
X131170376Y-88320556D01*
X131069255Y-88399262D01*
X130900833Y-88582217D01*
X130764826Y-88790393D01*
X130664936Y-89018118D01*
X130603892Y-89259175D01*
X130603890Y-89259187D01*
X130583357Y-89506994D01*
X130583357Y-89507005D01*
X129896500Y-89507005D01*
X129896500Y-82454844D01*
X137489000Y-82454844D01*
X137495401Y-82514372D01*
X137495403Y-82514379D01*
X137545645Y-82649086D01*
X137545649Y-82649093D01*
X137631809Y-82764187D01*
X137631812Y-82764190D01*
X137746906Y-82850350D01*
X137746913Y-82850354D01*
X137881620Y-82900596D01*
X137881627Y-82900598D01*
X137941155Y-82906999D01*
X137941172Y-82907000D01*
X139339000Y-82907000D01*
X139339000Y-82157000D01*
X139839000Y-82157000D01*
X139839000Y-82907000D01*
X141236828Y-82907000D01*
X141236844Y-82906999D01*
X141296372Y-82900598D01*
X141296379Y-82900596D01*
X141431086Y-82850354D01*
X141431093Y-82850350D01*
X141546187Y-82764190D01*
X141546190Y-82764187D01*
X141632350Y-82649093D01*
X141632354Y-82649086D01*
X141682596Y-82514379D01*
X141682598Y-82514372D01*
X141688999Y-82454844D01*
X141689000Y-82454827D01*
X141689000Y-81657000D01*
X140947044Y-81657000D01*
X140982634Y-81538123D01*
X140992828Y-81363094D01*
X140962384Y-81190433D01*
X140947962Y-81157000D01*
X141689000Y-81157000D01*
X141689000Y-80359172D01*
X141688999Y-80359155D01*
X141682598Y-80299627D01*
X141682596Y-80299620D01*
X141632354Y-80164913D01*
X141632350Y-80164906D01*
X141546190Y-80049812D01*
X141546187Y-80049809D01*
X141431093Y-79963649D01*
X141431086Y-79963645D01*
X141296379Y-79913403D01*
X141296372Y-79913401D01*
X141236844Y-79907000D01*
X139839000Y-79907000D01*
X139839000Y-80657000D01*
X139339000Y-80657000D01*
X139339000Y-79907000D01*
X137941155Y-79907000D01*
X137881627Y-79913401D01*
X137881620Y-79913403D01*
X137746913Y-79963645D01*
X137746906Y-79963649D01*
X137631812Y-80049809D01*
X137631809Y-80049812D01*
X137545649Y-80164906D01*
X137545645Y-80164913D01*
X137495403Y-80299620D01*
X137495401Y-80299627D01*
X137489000Y-80359155D01*
X137489000Y-81157000D01*
X138230956Y-81157000D01*
X138195366Y-81275877D01*
X138185172Y-81450906D01*
X138215616Y-81623567D01*
X138230038Y-81657000D01*
X137489000Y-81657000D01*
X137489000Y-82454844D01*
X129896500Y-82454844D01*
X129896500Y-79370500D01*
X129916185Y-79303461D01*
X129968989Y-79257706D01*
X130020500Y-79246500D01*
X153991500Y-79246500D01*
X154058539Y-79266185D01*
G37*
%TD.AperFunction*%
%TD*%
M02*
